<?xml version="1.0" encoding="iso-8859-1"?>
<!-- Generator: Adobe Illustrator 19.0.0, SVG Export Plug-In . SVG Version: 6.00 Build 0)  -->
<svg version="1.1" id="Capa_1" xmlns="http://www.w3.org/2000/svg" xmlns:xlink="http://www.w3.org/1999/xlink" x="0px" y="0px"
	 viewBox="0 0 512 512" style="enable-background:new 0 0 512 512;" xml:space="preserve">
<g>
	<g>
		<path d="M455.751,0H351.085h-190.17H56.248c-5.523,0-10,4.477-10,10v155.974c0,5.522,4.478,10,10,10h399.503
			c5.522,0,10-4.478,10-10V10C465.751,4.477,461.273,0,455.751,0z M66.721,155.973h-0.473V20h84.667v51.193
			C150.915,117.941,113.146,155.973,66.721,155.973z M127.875,155.973c26.062-19.064,43.04-49.963,43.04-84.779V20H246v76.518
			c0,5.522,4.477,10,10,10c5.522,0,10-4.478,10-10V20h75.085v51.193c0,34.817,17.074,65.716,43.283,84.78H127.875z M445.751,155.974
			c-46.696-0.061-84.666-38.069-84.666-84.78V20h84.666V155.974z"/>
	</g>
</g>
<g>
	<g>
		<path d="M265.799,127.56c-0.119-0.63-0.32-1.26-0.57-1.871c-0.25-0.6-0.56-1.18-0.92-1.72c-0.359-0.55-0.779-1.06-1.24-1.52
			c-0.46-0.46-0.97-0.881-1.52-1.25c-0.54-0.36-1.12-0.67-1.73-0.92c-0.6-0.25-1.229-0.44-1.869-0.57c-1.29-0.26-2.61-0.26-3.9,0
			c-0.64,0.13-1.27,0.32-1.88,0.57c-0.6,0.25-1.18,0.56-1.72,0.92c-0.55,0.369-1.06,0.79-1.52,1.25c-0.46,0.46-0.88,0.97-1.25,1.52
			c-0.36,0.54-0.66,1.12-0.91,1.72c-0.25,0.61-0.45,1.24-0.58,1.87c-0.13,0.65-0.19,1.311-0.19,1.96c0,0.65,0.06,1.311,0.2,1.95
			c0.12,0.64,0.32,1.271,0.57,1.87c0.25,0.6,0.56,1.191,0.92,1.73c0.36,0.551,0.78,1.061,1.24,1.52c1.86,1.86,4.44,2.93,7.07,2.93
			c0.65,0,1.31-0.069,1.95-0.2c0.64-0.13,1.27-0.319,1.869-0.569c0.61-0.25,1.19-0.561,1.73-0.92c0.55-0.36,1.06-0.78,1.52-1.24
			c0.461-0.46,0.881-0.97,1.24-1.52c0.36-0.539,0.67-1.13,0.92-1.73c0.25-0.6,0.45-1.23,0.57-1.87c0.13-0.64,0.2-1.3,0.2-1.95
			C265.999,128.871,265.929,128.211,265.799,127.56z"/>
	</g>
</g>
<g>
	<g>
		<path d="M502,238.847h-42.582c-5.522,0-10,4.478-10,10v51.16H208.49c-4.971-42.541-41.213-75.67-85.067-75.67H62.581v-26.982
			c0-5.523-4.477-10-10-10H10c-5.523,0-10,4.477-10,10V502c0,5.522,4.477,10,10,10h42.581c5.523,0,10-4.478,10-10v-31.46h386.837
			V502c0,5.522,4.478,10,10,10H502c5.522,0,10-4.478,10-10V248.847C512,243.324,507.522,238.847,502,238.847z M42.581,492H20
			V207.355h22.581V492z M62.581,244.337h60.842v0c32.812,0,60.08,24.188,64.91,55.67H62.581V244.337z M62.581,354.678h318.781
			c5.522,0,10-4.478,10-10c0-5.522-4.478-10-10-10H62.581v-14.671h136.512h250.325v79.251H62.581V354.678z M449.418,450.54H62.581
			v-31.282h386.837V450.54z M492,492h-22.582V258.847H492V492z"/>
	</g>
</g>
<g>
	<g>
		<path d="M424.84,342.72c-0.13-0.63-0.32-1.26-0.57-1.87c-0.25-0.6-0.56-1.18-0.92-1.72c-0.37-0.55-0.79-1.061-1.25-1.521
			c-0.46-0.46-0.97-0.88-1.52-1.25c-0.54-0.359-1.12-0.67-1.721-0.92c-0.609-0.25-1.239-0.44-1.869-0.569
			c-1.29-0.261-2.62-0.261-3.91,0c-0.641,0.13-1.271,0.319-1.87,0.569c-0.61,0.25-1.19,0.56-1.73,0.92
			c-0.55,0.37-1.06,0.79-1.52,1.25c-0.46,0.46-0.88,0.971-1.24,1.521c-0.36,0.54-0.67,1.12-0.92,1.72
			c-0.25,0.61-0.44,1.24-0.57,1.87c-0.13,0.65-0.199,1.3-0.199,1.96c0,0.65,0.069,1.311,0.199,1.95c0.129,0.64,0.32,1.269,0.57,1.87
			c0.25,0.609,0.56,1.19,0.92,1.729c0.36,0.551,0.78,1.061,1.24,1.521c0.46,0.46,0.97,0.88,1.52,1.24
			c0.54,0.359,1.12,0.67,1.73,0.92c0.6,0.25,1.23,0.439,1.87,0.569s1.3,0.2,1.95,0.2c0.649,0,1.31-0.07,1.96-0.2
			c0.63-0.13,1.26-0.319,1.869-0.569c0.601-0.25,1.181-0.561,1.721-0.92c0.55-0.36,1.059-0.78,1.52-1.24
			c0.46-0.46,0.88-0.97,1.25-1.521c0.36-0.54,0.67-1.12,0.92-1.729c0.25-0.601,0.44-1.23,0.57-1.87c0.13-0.64,0.19-1.3,0.19-1.95
			C425.03,344.02,424.969,343.37,424.84,342.72z"/>
	</g>
</g>
<g>
</g>
<g>
</g>
<g>
</g>
<g>
</g>
<g>
</g>
<g>
</g>
<g>
</g>
<g>
</g>
<g>
</g>
<g>
</g>
<g>
</g>
<g>
</g>
<g>
</g>
<g>
</g>
<g>
</g>
</svg>
