<?xml version="1.0" standalone="no"?>
<!DOCTYPE svg PUBLIC "-//W3C//DTD SVG 20010904//EN"
 "http://www.w3.org/TR/2001/REC-SVG-20010904/DTD/svg10.dtd">
<svg version="1.0" xmlns="http://www.w3.org/2000/svg"
 width="256.000000pt" height="256.000000pt" viewBox="0 0 256.000000 256.000000"
 preserveAspectRatio="xMidYMid meet">
<metadata>
Created by potrace 1.10, written by Peter Selinger 2001-2011
</metadata>
<g transform="translate(0.000000,256.000000) scale(0.050000,-0.050000)"
fill="#ffffff" stroke="none">
<path d="M3180 3451 c-104 -37 -374 -132 -600 -211 -225 -78 -500 -174 -610
-213 -110 -39 -266 -93 -347 -121 -321 -111 -386 -290 -169 -461 73 -57 559
-305 598 -305 65 0 159 -135 315 -450 241 -485 350 -578 502 -431 84 82 92 99
321 771 105 308 215 623 243 700 214 584 220 612 132 694 -122 114 -135 114
-385 27z m-1701 -954 l45 -60 -53 34 c-60 40 -110 115 -65 98 16 -6 48 -38 73
-72z m1264 -1237 c29 0 78 20 109 44 l58 44 -48 -54 c-70 -77 -157 -73 -233
11 l-59 65 61 -55 c34 -30 84 -55 112 -55z"/>
</g>
</svg>
